<?xml version="1.0" standalone="no"?>
<!DOCTYPE svg PUBLIC "-//W3C//DTD SVG 20010904//EN"
 "http://www.w3.org/TR/2001/REC-SVG-20010904/DTD/svg10.dtd">
<svg version="1.0" xmlns="http://www.w3.org/2000/svg"
 width="341.000000pt" height="341.000000pt" viewBox="0 0 341.000000 341.000000"
 preserveAspectRatio="xMidYMid meet">
<metadata>
Created by potrace 1.14, written by Peter Selinger 2001-2017
</metadata>
<g transform="translate(0.000000,341.000000) scale(0.100000,-0.100000)"
fill="#000000" stroke="none">
<path d="M0 1713 c0 -692 3 -873 13 -874 6 0 219 0 473 -1 492 0 492 0 537 49
17 20 151 397 138 388 -5 -2 -26 -34 -47 -71 -72 -123 -199 -235 -321 -283
-60 -23 -139 -40 -220 -45 l-63 -4 0 687 c0 416 -4 703 -10 729 -26 112 -103
208 -204 256 -63 30 -101 37 -215 39 l-81 2 0 -872z"/>
<path d="M2440 2579 l-65 -6 75 -2 c128 -5 157 -9 217 -26 118 -35 170 -82
204 -188 21 -64 23 -91 23 -247 0 -96 -3 -193 -7 -215 -16 -84 -79 -139 -164
-144 -27 -2 -11 -19 22 -25 64 -12 122 -80 141 -165 3 -14 8 -84 10 -156 8
-260 10 -278 40 -340 69 -140 205 -219 398 -230 l68 -4 -8 42 c-4 23 -8 175
-9 337 l-1 295 -26 57 c-33 70 -73 108 -163 153 -38 19 -63 34 -54 35 32 0
158 71 185 103 56 67 78 145 78 282 -1 148 -31 238 -106 314 -74 74 -166 111
-316 127 -74 8 -462 10 -542 3z"/>
<path d="M1643 2564 c-18 -9 -40 -27 -49 -42 -15 -22 -156 -421 -206 -580 -19
-62 -18 -100 1 -49 21 55 90 69 121 25 13 -19 57 -138 129 -348 18 -50 109
-311 159 -452 45 -128 143 -218 285 -264 67 -21 105 -26 210 -28 70 -1 127 0
127 4 0 3 -18 57 -41 120 -23 63 -63 178 -90 255 -26 77 -67 192 -90 255 -22
63 -44 126 -49 140 -4 14 -31 90 -60 170 -28 80 -58 163 -65 185 -8 22 -23 65
-33 95 -29 81 -131 368 -148 418 -8 24 -23 52 -32 63 -38 46 -114 61 -169 33z"/>
</g>
</svg>
